<svg
  xmlns="http://www.w3.org/2000/svg" viewBox="0 0 35 21.97">
  <g>
    <path d="M11.71,11.47l-.83-2.72H6.72l-.83,2.72H3.28L7.31,0h3l4.05,11.47ZM10.3,6.72,9,2.54c-.09-.32-.16-.58-.21-.77q-.25,1-1.47,4.95Z"/>
    <path d="M26.27.05h2.45L24.84,11.47H22.2L18.32.05h2.45l2.14,6.79c.12.41.25.87.38,1.41s.2.9.23,1.11a21.53,21.53,0,0,1,.59-2.52Z"/>
    <rect x="21" y="18.47" width="11.5" height="1"/>
    <path d="M35,19l-3,2.5v-5Z"/>
    <rect x="20.5" y="15.97" width="1" height="6"/>
    <rect x="2.5" y="18.47" width="11.5" height="1"/>
    <path d="M0,19l3-2.5v5Z"/>
    <rect x="13.5" y="15.97" width="1" height="6"/>
  </g>
</svg>